<?xml version="1.0" encoding="utf-8"?>
<!-- Generator: Adobe Illustrator 22.0.1, SVG Export Plug-In . SVG Version: 6.00 Build 0)  -->
<svg version="1.1" id="图层_2" xmlns="http://www.w3.org/2000/svg" xmlns:xlink="http://www.w3.org/1999/xlink" x="0px" y="0px"
	 viewBox="0 0 1000 1000" style="enable-background:new 0 0 1000 1000;" xml:space="preserve">
<style type="text/css">
	.st0{fill:#5F5600;}
	.st1{fill:#F8FFC9;}
	.st2{fill:#FF5A79;}
	.st3{stroke:#FFFFFF;stroke-width:3;stroke-miterlimit:10;}
	.st4{opacity:0.37;}
</style>
<polygon class="st0" points="871.5,769.9 86.9,769.9 282.2,350.2 928.2,350.2 "/>
<polyline class="st1" points="872.1,307.3 815.4,727.1 30.8,727.1 226.1,307.3 872.1,307.3 "/>
<g>
	<path d="M281.7,510.5l2.5-5.3l89.3-35.3l-2.6,6.4l-79.9,31.4l-0.2,0.4l54.1,33l-2.9,7.3L281.7,510.5z"/>
	<g>
		<path class="st2" d="M507.6,430.6c-14.7,0-29.4,7.4-39,18.2c-2.5-10.8-12.4-18.2-27.1-18.2c-20.5,0-43.3,15.2-50.4,33.4
			c-12.4,32.1,38.9,103.4,38.9,103.4S527.9,496,536.3,464C541.1,445.8,528.1,430.6,507.6,430.6z"/>
	</g>
	<path d="M522.5,554.7l58.6-100.4h7.4l-58.1,100.4H522.5z"/>
	<path d="M670,505.2l-0.8,5.3L586,548.4l1.5-7.3l74.2-33l0.1-0.4l-61-31.4l1.3-6.4L670,505.2z"/>
</g>
<g>
	<path d="M798.9,161.9c-5-3.7-12-3.4-18.7,0.6c-3.2,1.9-4.3,7.1-1.7,8.6l20.6,12.5c2.6,1.5,6.3-1.9,6.4-5.8
		C805.5,171,803.1,165.1,798.9,161.9z"/>
	<path d="M778.7,172.7l20.7,12.5c2.8,1.7,3.2,6.4,0.9,10.5l-43.9,78.5c-2.3,4.1-6.4,6-9.2,4.3l-20.7-12.5c-2.8-1.7-3.2-6.4-0.9-10.5
		l43.9-78.5C771.7,173,775.9,171,778.7,172.7z"/>
	<path d="M729.5,269.1l14.1,8.5c2.7,1.6,3.1,6.1,0.9,10l-99.9,178.9c-2.2,3.9-6.1,5.8-8.8,4.1l-14.1-8.5c-2.7-1.6-3.1-6.1-0.9-10
		l99.9-178.9C722.9,269.3,726.9,267.5,729.5,269.1z"/>
	<path d="M799.2,199.8l4,2.4c1.1,0.7,1.3,2.5,0.4,4.1l-33.8,60.5c-0.9,1.6-2.5,2.4-3.6,1.7l-2.4-1.5c-1.5-0.9-1.1-4,0.7-5.4l4.4-3.4
		c0.4-0.3,0.8-0.8,1.1-1.3l24.2-43.3c0.9-1.6,0.7-3.4-0.4-4.1l0,0c-1.1-0.7-1.3-2.5-0.4-4.1l2.2-3.9
		C796.5,199.9,798.1,199.1,799.2,199.8z"/>
	<g>
		<polygon points="627.6,467.7 617.5,461.6 595,490.2 588.8,537.3 		"/>
		<polygon points="627.3,467.5 637.4,473.7 624.7,508.2 588.5,537.1 		"/>
		<line class="st3" x1="588.8" y1="537.3" x2="610.7" y2="497.1"/>
		
			<ellipse transform="matrix(0.4585 -0.8887 0.8887 0.4585 -112.454 811.9086)" class="st3" cx="610.1" cy="498.2" rx="1.8" ry="1.2"/>
	</g>
</g>
<g class="st4">
	<path d="M741.1,727.1"/>
	<path d="M777,727.1"/>
	<path d="M777,727.1l-69.1-76.8c-5.4-6-11.9-9.6-14.6-8l-14,8.1c-2.7,1.5-0.4,7.6,4.9,13.6l56.8,63.1"/>
	<g>
		<polygon points="684.6,643.8 694.7,638 656.1,586.9 588.9,537.5 		"/>
		<polygon points="685,643.7 674.9,649.5 626.7,604 589.3,537.3 		"/>
		<line class="st3" x1="588.9" y1="537.5" x2="644.3" y2="598.3"/>
		
			<ellipse transform="matrix(0.7206 -0.6934 0.6934 0.7206 -234.0611 612.3387)" class="st3" cx="642.7" cy="596.6" rx="1.2" ry="3.2"/>
	</g>
</g>
</svg>
